# xmcd
#
# Track frame offsets:
#	151
#	18280
#	41812
#	59162
#	74068
#	89409
#	115417
#	128033
#
# Disc length: 2203 seconds
#
# Revision: 0
# Processed by: cddbd v1.5.1PL0 Copyright (c) Steve Scherf et al.
# Submitted via: dBpowerAMP V4.0
#
DISCID=78089908
DTITLE=Cornell Dupree  - Teasin'
DYEAR=1974
DGENRE=Blues
TTITLE0=Teasin' 
TTITLE1=Blue Nocturne
TTITLE2=Jamaican Lady
TTITLE3=Feel All Right
TTITLE4=How Long Will It Last?
TTITLE5=What Would I Do Without You?
TTITLE6=Okie Dokie Stomp
TTITLE7=Plain Ol' Blues
EXTD=Teasin'\nCornell Dupree \n1. Teasin' (3:55) [Curtis Ousley, Delaney Bramlett]  \n2. Blue Nocturne (5:17) [Curtis Ousley]  \n3. Jamaican Lady (3:54) [Cornell Dupree]  \n4. Feel All RIGHT (3:17) [Curtis Ousley]  \n5. How Long Will It Last (3:20) [Eri
EXTD=c Gale]  \n6. What Would I Do Without You? (5:49) [Ray Charles]  \n7. Okie Dokie Stomp (2:50) [Plummer Davis]  \n8. Plain Ol' Blues (8:12) [Cornell Dupree]  \n
EXTT0=
EXTT1=
EXTT2=
EXTT3=
EXTT4=
EXTT5=
EXTT6=
EXTT7=
PLAYORDER=
